{
    "asset": {
        "copyright": "2023 (c) Adobe Inc.",
        "generator": "Adobe Substance 3D Stager - c13c8eba0f08bbac1a2b9f44a395e12e41662829",
        "version": "2.0",
        "extensions": {
            "KHR_xmp_json_ld": {
                "packet": 0
            }
        }
    },
    "accessors": [
        {
            "bufferView": 0,
            "componentType": 5126,
            "count": 12390,
            "type": "VEC3",
            "max": [
                0.11880023032426834,
                0.12870024144649507,
                0.0023458099458366634
            ],
            "min": [
                0.004500017035752535,
                -0.0026913981419056656,
                -0.012345810420811177
            ]
        },
        {
            "bufferView": 1,
            "componentType": 5126,
            "count": 12390,
            "type": "VEC3"
        },
        {
            "bufferView": 2,
            "componentType": 5126,
            "count": 12390,
            "type": "VEC4"
        },
        {
            "bufferView": 3,
            "componentType": 5126,
            "count": 12390,
            "type": "VEC2"
        },
        {
            "bufferView": 4,
            "componentType": 5125,
            "count": 5760,
            "type": "SCALAR",
            "max": [
                12389.0
            ],
            "min": [
                9904.0
            ]
        },
        {
            "bufferView": 5,
            "componentType": 5125,
            "count": 4269,
            "type": "SCALAR",
            "max": [
                10892.0
            ],
            "min": [
                0.0
            ]
        },
        {
            "bufferView": 6,
            "componentType": 5125,
            "count": 23997,
            "type": "SCALAR",
            "max": [
                12274.0
            ],
            "min": [
                0.0
            ]
        },
        {
            "bufferView": 7,
            "componentType": 5125,
            "count": 28266,
            "type": "SCALAR",
            "max": [
                11781.0
            ],
            "min": [
                4472.0
            ]
        },
        {
            "bufferView": 8,
            "componentType": 5126,
            "count": 13248,
            "type": "VEC3",
            "max": [
                0.13443401455879212,
                0.13695111870765687,
                0.03483332693576813
            ],
            "min": [
                -0.1376584768295288,
                -0.13742241263389588,
                -0.00006234049942577258
            ]
        },
        {
            "bufferView": 9,
            "componentType": 5126,
            "count": 13248,
            "type": "VEC3"
        },
        {
            "bufferView": 10,
            "componentType": 5126,
            "count": 13248,
            "type": "VEC4"
        },
        {
            "bufferView": 11,
            "componentType": 5126,
            "count": 13248,
            "type": "VEC2"
        },
        {
            "bufferView": 12,
            "componentType": 5125,
            "count": 19008,
            "type": "SCALAR",
            "max": [
                13247.0
            ],
            "min": [
                0.0
            ]
        }
    ],
    "bufferViews": [
        {
            "buffer": 0,
            "byteOffset": 0,
            "byteLength": 148680,
            "target": 34962
        },
        {
            "buffer": 0,
            "byteOffset": 148680,
            "byteLength": 148680,
            "target": 34962
        },
        {
            "buffer": 0,
            "byteOffset": 297360,
            "byteLength": 198240,
            "target": 34962
        },
        {
            "buffer": 0,
            "byteOffset": 495600,
            "byteLength": 99120,
            "target": 34962
        },
        {
            "buffer": 0,
            "byteOffset": 594720,
            "byteLength": 23040,
            "target": 34963
        },
        {
            "buffer": 0,
            "byteOffset": 617760,
            "byteLength": 17076,
            "target": 34963
        },
        {
            "buffer": 0,
            "byteOffset": 634836,
            "byteLength": 95988,
            "target": 34963
        },
        {
            "buffer": 0,
            "byteOffset": 730824,
            "byteLength": 113064,
            "target": 34963
        },
        {
            "buffer": 0,
            "byteOffset": 843888,
            "byteLength": 158976,
            "target": 34962
        },
        {
            "buffer": 0,
            "byteOffset": 1002864,
            "byteLength": 158976,
            "target": 34962
        },
        {
            "buffer": 0,
            "byteOffset": 1161840,
            "byteLength": 211968,
            "target": 34962
        },
        {
            "buffer": 0,
            "byteOffset": 1373808,
            "byteLength": 105984,
            "target": 34962
        },
        {
            "buffer": 0,
            "byteOffset": 1479792,
            "byteLength": 76032,
            "target": 34963
        }
    ],
    "buffers": [
        {
            "byteLength": 1555824,
            "uri": "simmify-logo-concept_binary.bin"
        }
    ],
    "cameras": [
        {
            "perspective": {
                "znear": 0.000027400612452765928,
                "yfov": 0.691100001335144,
                "zfar": 2.0,
                "aspectRatio": 1.0
            },
            "type": "perspective",
            "name": "render_camera"
        }
    ],
    "materials": [
        {
            "pbrMetallicRoughness": {
                "baseColorFactor": [
                    0.9386858940124512,
                    0.8962691426277161,
                    0.1499594897031784,
                    1.0
                ],
                "metallicFactor": 0.25,
                "roughnessFactor": 0.30000001192092898
            },
            "name": "Default material",
            "doubleSided": true
        },
        {
            "pbrMetallicRoughness": {
                "baseColorFactor": [
                    0.9846714735031128,
                    0.8186692595481873,
                    0.8787294030189514,
                    1.0
                ],
                "metallicFactor": 0.25,
                "roughnessFactor": 0.14000000059604646
            },
            "name": "frosty_glass",
            "doubleSided": true,
            "extensions": {
                "KHR_materials_volume": {
                    "attenuationColor": [
                        0.83077073097229,
                        0.8549920320510864,
                        0.8468738198280335
                    ],
                    "attenuationDistance": 1,
                    "thicknessFactor": 1
                },
                "KHR_materials_ior": {
                    "ior": 1.7999999523162842
                },
                "KHR_materials_transmission": {
                    "transmissionFactor": 1
                }
            }
        }
    ],
    "meshes": [
        {
            "name": "TextMesh2",
            "primitives": [
                {
                    "attributes": {
                        "TEXCOORD_0": 3,
                        "TANGENT": 2,
                        "NORMAL": 1,
                        "POSITION": 0
                    },
                    "indices": 4,
                    "material": 0
                },
                {
                    "attributes": {
                        "POSITION": 0,
                        "NORMAL": 1,
                        "TANGENT": 2,
                        "TEXCOORD_0": 3
                    },
                    "indices": 5,
                    "material": 0
                },
                {
                    "attributes": {
                        "TEXCOORD_0": 3,
                        "TANGENT": 2,
                        "NORMAL": 1,
                        "POSITION": 0
                    },
                    "indices": 6,
                    "material": 0
                },
                {
                    "attributes": {
                        "TEXCOORD_0": 3,
                        "TANGENT": 2,
                        "NORMAL": 1,
                        "POSITION": 0
                    },
                    "indices": 7,
                    "material": 0
                }
            ]
        },
        {
            "name": "primitive_shape_10_002_mesh 2",
            "primitives": [
                {
                    "attributes": {
                        "POSITION": 8,
                        "NORMAL": 9,
                        "TANGENT": 10,
                        "TEXCOORD_0": 11
                    },
                    "indices": 12,
                    "material": 1
                }
            ]
        }
    ],
    "nodes": [
        {
            "name": "working_cam_n3d"
        },
        {
            "children": [
                2
            ],
            "translation": [
                0.26856157183647158,
                0.08358291536569596,
                -0.13498009741306306
            ],
            "rotation": [
                0.0,
                0.22554267942905427,
                0.0,
                0.9742332696914673
            ],
            "scale": [
                1.0000001192092896,
                1.0,
                1.0000001192092896
            ],
            "name": "primitive_shape_set_06 2"
        },
        {
            "children": [
                3,
                4
            ],
            "translation": [
                0.0,
                0.0,
                -0.005311525892466307
            ],
            "name": "primitive_shape_set_06_rootmodel"
        },
        {
            "translation": [
                -0.37452399730682375,
                0.0807226151227951,
                0.05249066650867462
            ],
            "mesh": 0,
            "name": "Text"
        },
        {
            "translation": [
                -0.3112615942955017,
                0.14396269619464875,
                0.005311525892466307
            ],
            "mesh": 1,
            "name": "primitive_shape_10_002_meshmodel"
        },
        {
            "translation": [
                -0.001612233929336071,
                0.14372709393501283,
                1.2404069900512696
            ],
            "camera": 0,
            "name": "Camera"
        }
    ],
    "scenes": [
        {
            "nodes": [
                1,
                5
            ],
            "name": "scene"
        }
    ],
    "scene": 0,
    "extensions": {
        "KHR_xmp_json_ld": {
            "packets": [
                {
                    "@context": {
                        "dc": "http://purl.org/dc/elements/1.1/"
                    },
                    "dc:date": "2024-04-21T11:49:58.315Z",
                    "dc:title": "simmify-logo-concept.ssg",
                    "xmp:CreatorTool": "Adobe Substance 3D Stager"
                }
            ]
        }
    },
    "extensionsUsed": [
        "KHR_xmp_json_ld",
        "KHR_materials_transmission",
        "KHR_materials_ior",
        "KHR_materials_volume"
    ]
}